# xmcd CD database file
# Copyright (C) 1996 Ti Kan
#
# Track frame offsets:
#  200
#  17450
#  32675
#  56300
#  69875
#  96500
#  113975
#  131825
#  150350
#  171142
#  190700
#  208850
#
# Disc length: 2979 seconds
#
# Revision: 2
# Processed by: cddbd v1.4b41PL1 Copyright (c) Steve Scherf et al.
# Submitted via: CDWizzard Release:4.12
#
DISCID=980ba10c
DTITLE=Skip James - Devil Got My Woman
DYEAR=1900
DGENRE=
TTITLE0=Good Road Camp Blues
TTITLE1=Little Cow, Little Calf Blues
TTITLE2=Devil Got My Woman
TTITLE3=Look At The People Standing At The Judgement
TTITLE4=Worried Blues
TTITLE5=22-20 Blues
TTITLE6=Mistreating Child Blues
TTITLE7=Sickbed Blues
TTITLE8=Catfish Blues
TTITLE9=Lorenzo Blues
TTITLE10=Careless Love
TTITLE11=Illinois Blues
EXTD=
EXTT0=
EXTT1=
EXTT2=
EXTT3=
EXTT4=
EXTT5=
EXTT6=
EXTT7=
EXTT8=
EXTT9=
EXTT10=
EXTT11=
PLAYORDER=
